<mxfile host="app.diagrams.net" modified="2024-03-24T18:13:58.243Z" agent="Mozilla/5.0 (X11; Linux x86_64) AppleWebKit/537.36 (KHTML, like Gecko) Chrome/120.0.0.0 Safari/537.36" etag="APw12PAAoB5BGzjbpx29" version="24.1.0" type="device">
  <diagram id="C5RBs43oDa-KdzZeNtuy" name="Page-1">
    <mxGraphModel dx="1570" dy="900" grid="1" gridSize="10" guides="1" tooltips="1" connect="1" arrows="1" fold="1" page="1" pageScale="1" pageWidth="827" pageHeight="1169" math="0" shadow="0">
      <root>
        <mxCell id="WIyWlLk6GJQsqaUBKTNV-0" />
        <mxCell id="WIyWlLk6GJQsqaUBKTNV-1" parent="WIyWlLk6GJQsqaUBKTNV-0" />
        <mxCell id="7QOgfjtzlWrOovaGbKqE-0" value="" style="rounded=0;whiteSpace=wrap;html=1;opacity=0;" vertex="1" parent="WIyWlLk6GJQsqaUBKTNV-1">
          <mxGeometry x="12" y="30" width="948" height="870" as="geometry" />
        </mxCell>
        <mxCell id="i2YIwyT0wJ4ALkn0WlBp-0" value="Cliente" style="swimlane;whiteSpace=wrap;html=1;" parent="WIyWlLk6GJQsqaUBKTNV-1" vertex="1">
          <mxGeometry x="270" y="120" width="160" height="200" as="geometry" />
        </mxCell>
        <mxCell id="i2YIwyT0wJ4ALkn0WlBp-25" value="+estadomotor: EstadoMotor" style="text;html=1;align=center;verticalAlign=middle;resizable=0;points=[];autosize=1;strokeColor=none;fillColor=none;" parent="i2YIwyT0wJ4ALkn0WlBp-0" vertex="1">
          <mxGeometry x="-5" y="28" width="170" height="30" as="geometry" />
        </mxCell>
        <mxCell id="i2YIwyT0wJ4ALkn0WlBp-26" value="+revoluciones: double" style="text;html=1;align=center;verticalAlign=middle;resizable=0;points=[];autosize=1;strokeColor=none;fillColor=none;" parent="i2YIwyT0wJ4ALkn0WlBp-0" vertex="1">
          <mxGeometry x="-5" y="45" width="140" height="30" as="geometry" />
        </mxCell>
        <mxCell id="i2YIwyT0wJ4ALkn0WlBp-27" value="" style="endArrow=none;html=1;rounded=0;" parent="i2YIwyT0wJ4ALkn0WlBp-0" edge="1">
          <mxGeometry width="50" height="50" relative="1" as="geometry">
            <mxPoint y="80" as="sourcePoint" />
            <mxPoint x="160" y="80" as="targetPoint" />
          </mxGeometry>
        </mxCell>
        <mxCell id="i2YIwyT0wJ4ALkn0WlBp-28" value="peticion():double" style="text;html=1;align=center;verticalAlign=middle;resizable=0;points=[];autosize=1;strokeColor=none;fillColor=none;" parent="i2YIwyT0wJ4ALkn0WlBp-0" vertex="1">
          <mxGeometry x="-5" y="75" width="110" height="30" as="geometry" />
        </mxCell>
        <mxCell id="lMpaoCtHyFMVsELwLEnl-4" value="arrancar():void" style="text;html=1;align=center;verticalAlign=middle;resizable=0;points=[];autosize=1;strokeColor=none;fillColor=none;" parent="i2YIwyT0wJ4ALkn0WlBp-0" vertex="1">
          <mxGeometry x="-5" y="100" width="100" height="30" as="geometry" />
        </mxCell>
        <mxCell id="lMpaoCtHyFMVsELwLEnl-5" value="acelerar():void" style="text;html=1;align=center;verticalAlign=middle;resizable=0;points=[];autosize=1;strokeColor=none;fillColor=none;" parent="i2YIwyT0wJ4ALkn0WlBp-0" vertex="1">
          <mxGeometry x="-5" y="118" width="100" height="30" as="geometry" />
        </mxCell>
        <mxCell id="lMpaoCtHyFMVsELwLEnl-6" value="frenar():void" style="text;html=1;align=center;verticalAlign=middle;resizable=0;points=[];autosize=1;strokeColor=none;fillColor=none;" parent="i2YIwyT0wJ4ALkn0WlBp-0" vertex="1">
          <mxGeometry x="-5" y="140" width="90" height="30" as="geometry" />
        </mxCell>
        <mxCell id="lMpaoCtHyFMVsELwLEnl-9" value="apagar():void" style="text;html=1;align=center;verticalAlign=middle;resizable=0;points=[];autosize=1;strokeColor=none;fillColor=none;" parent="i2YIwyT0wJ4ALkn0WlBp-0" vertex="1">
          <mxGeometry x="-5" y="158" width="90" height="30" as="geometry" />
        </mxCell>
        <mxCell id="i2YIwyT0wJ4ALkn0WlBp-1" value="GestorFiltros" style="swimlane;whiteSpace=wrap;html=1;" parent="WIyWlLk6GJQsqaUBKTNV-1" vertex="1">
          <mxGeometry x="270" y="400" width="160" height="140" as="geometry" />
        </mxCell>
        <mxCell id="i2YIwyT0wJ4ALkn0WlBp-18" value="+cadena: CadenaFiltros" style="text;html=1;align=center;verticalAlign=middle;resizable=0;points=[];autosize=1;strokeColor=none;fillColor=none;" parent="i2YIwyT0wJ4ALkn0WlBp-1" vertex="1">
          <mxGeometry x="-10" y="20" width="150" height="30" as="geometry" />
        </mxCell>
        <mxCell id="i2YIwyT0wJ4ALkn0WlBp-20" value="addFiltroRoza(): void" style="text;html=1;align=center;verticalAlign=middle;resizable=0;points=[];autosize=1;strokeColor=none;fillColor=none;" parent="i2YIwyT0wJ4ALkn0WlBp-1" vertex="1">
          <mxGeometry x="-6" y="58" width="130" height="30" as="geometry" />
        </mxCell>
        <mxCell id="i2YIwyT0wJ4ALkn0WlBp-23" value="addFiltroVelo():void" style="text;html=1;align=center;verticalAlign=middle;resizable=0;points=[];autosize=1;strokeColor=none;fillColor=none;" parent="i2YIwyT0wJ4ALkn0WlBp-1" vertex="1">
          <mxGeometry x="-10" y="80" width="130" height="30" as="geometry" />
        </mxCell>
        <mxCell id="i2YIwyT0wJ4ALkn0WlBp-24" value="peticionFiltros():double" style="text;html=1;align=center;verticalAlign=middle;resizable=0;points=[];autosize=1;strokeColor=none;fillColor=none;" parent="i2YIwyT0wJ4ALkn0WlBp-1" vertex="1">
          <mxGeometry x="-6" y="100" width="140" height="30" as="geometry" />
        </mxCell>
        <mxCell id="i2YIwyT0wJ4ALkn0WlBp-19" value="" style="endArrow=none;html=1;rounded=0;entryX=1;entryY=0.5;entryDx=0;entryDy=0;exitX=0;exitY=0.5;exitDx=0;exitDy=0;" parent="i2YIwyT0wJ4ALkn0WlBp-1" edge="1">
          <mxGeometry width="50" height="50" relative="1" as="geometry">
            <mxPoint y="58" as="sourcePoint" />
            <mxPoint x="160" y="58" as="targetPoint" />
          </mxGeometry>
        </mxCell>
        <mxCell id="i2YIwyT0wJ4ALkn0WlBp-2" value="CadenaFiltros" style="swimlane;whiteSpace=wrap;html=1;" parent="WIyWlLk6GJQsqaUBKTNV-1" vertex="1">
          <mxGeometry x="510" y="400" width="250" height="100" as="geometry" />
        </mxCell>
        <mxCell id="i2YIwyT0wJ4ALkn0WlBp-13" value="+filtros: ArrayList&amp;lt;filtro&amp;gt;" style="text;html=1;align=center;verticalAlign=middle;resizable=0;points=[];autosize=1;strokeColor=none;fillColor=none;" parent="i2YIwyT0wJ4ALkn0WlBp-2" vertex="1">
          <mxGeometry x="-10" y="20" width="150" height="30" as="geometry" />
        </mxCell>
        <mxCell id="i2YIwyT0wJ4ALkn0WlBp-17" value="" style="endArrow=none;html=1;rounded=0;entryX=0.064;entryY=1.044;entryDx=0;entryDy=0;entryPerimeter=0;" parent="i2YIwyT0wJ4ALkn0WlBp-2" target="i2YIwyT0wJ4ALkn0WlBp-13" edge="1">
          <mxGeometry width="50" height="50" relative="1" as="geometry">
            <mxPoint x="250" y="51" as="sourcePoint" />
            <mxPoint x="640" y="200" as="targetPoint" />
          </mxGeometry>
        </mxCell>
        <mxCell id="i2YIwyT0wJ4ALkn0WlBp-16" value="ejecutar(revoluciones, estadomotor): double" style="text;html=1;align=center;verticalAlign=middle;resizable=0;points=[];autosize=1;strokeColor=none;fillColor=none;" parent="i2YIwyT0wJ4ALkn0WlBp-2" vertex="1">
          <mxGeometry x="-5" y="50" width="260" height="30" as="geometry" />
        </mxCell>
        <mxCell id="lMpaoCtHyFMVsELwLEnl-17" value="1" style="text;html=1;align=center;verticalAlign=middle;whiteSpace=wrap;rounded=0;" parent="i2YIwyT0wJ4ALkn0WlBp-2" vertex="1">
          <mxGeometry x="-40" y="20" width="60" height="30" as="geometry" />
        </mxCell>
        <mxCell id="i2YIwyT0wJ4ALkn0WlBp-3" value="Filtro" style="swimlane;whiteSpace=wrap;html=1;startSize=20;" parent="WIyWlLk6GJQsqaUBKTNV-1" vertex="1">
          <mxGeometry x="505" y="600" width="250" height="120" as="geometry" />
        </mxCell>
        <mxCell id="i2YIwyT0wJ4ALkn0WlBp-4" value="ejecutar(revoluciones, estadomotor): double" style="text;html=1;align=center;verticalAlign=middle;resizable=0;points=[];autosize=1;strokeColor=none;fillColor=none;" parent="i2YIwyT0wJ4ALkn0WlBp-3" vertex="1">
          <mxGeometry x="-5" y="20" width="260" height="30" as="geometry" />
        </mxCell>
        <mxCell id="i2YIwyT0wJ4ALkn0WlBp-5" value="FiltroCalcularVelocidad" style="swimlane;whiteSpace=wrap;html=1;" parent="WIyWlLk6GJQsqaUBKTNV-1" vertex="1">
          <mxGeometry x="347.5" y="800" width="255" height="80" as="geometry" />
        </mxCell>
        <mxCell id="i2YIwyT0wJ4ALkn0WlBp-9" value="ejecutar(revoluciones, estadomotor): double" style="text;html=1;align=center;verticalAlign=middle;resizable=0;points=[];autosize=1;strokeColor=none;fillColor=none;" parent="i2YIwyT0wJ4ALkn0WlBp-5" vertex="1">
          <mxGeometry x="-5" y="25" width="260" height="30" as="geometry" />
        </mxCell>
        <mxCell id="i2YIwyT0wJ4ALkn0WlBp-6" value="FiltroRepercutirRozamiento" style="swimlane;whiteSpace=wrap;html=1;" parent="WIyWlLk6GJQsqaUBKTNV-1" vertex="1">
          <mxGeometry x="682.5" y="800" width="250" height="80" as="geometry" />
        </mxCell>
        <mxCell id="i2YIwyT0wJ4ALkn0WlBp-10" value="ejecutar(revoluciones, estadomotor): double" style="text;html=1;align=center;verticalAlign=middle;resizable=0;points=[];autosize=1;strokeColor=none;fillColor=none;" parent="i2YIwyT0wJ4ALkn0WlBp-6" vertex="1">
          <mxGeometry x="-5" y="25" width="260" height="30" as="geometry" />
        </mxCell>
        <mxCell id="i2YIwyT0wJ4ALkn0WlBp-7" value="" style="endArrow=classic;html=1;rounded=0;" parent="WIyWlLk6GJQsqaUBKTNV-1" edge="1">
          <mxGeometry width="50" height="50" relative="1" as="geometry">
            <mxPoint x="552.5" y="800" as="sourcePoint" />
            <mxPoint x="632.5" y="720" as="targetPoint" />
            <Array as="points">
              <mxPoint x="552.5" y="760" />
              <mxPoint x="632.5" y="760" />
            </Array>
          </mxGeometry>
        </mxCell>
        <mxCell id="i2YIwyT0wJ4ALkn0WlBp-8" value="" style="endArrow=classic;html=1;rounded=0;" parent="WIyWlLk6GJQsqaUBKTNV-1" edge="1">
          <mxGeometry width="50" height="50" relative="1" as="geometry">
            <mxPoint x="712.5" y="800" as="sourcePoint" />
            <mxPoint x="632.5" y="720" as="targetPoint" />
            <Array as="points">
              <mxPoint x="712.5" y="760" />
              <mxPoint x="632.5" y="760" />
            </Array>
          </mxGeometry>
        </mxCell>
        <mxCell id="i2YIwyT0wJ4ALkn0WlBp-11" value="Objetivo" style="swimlane;whiteSpace=wrap;html=1;" parent="WIyWlLk6GJQsqaUBKTNV-1" vertex="1">
          <mxGeometry x="510" y="240" width="250" height="80" as="geometry" />
        </mxCell>
        <mxCell id="i2YIwyT0wJ4ALkn0WlBp-12" value="ejecutar(revoluciones, estadomotor): double" style="text;html=1;align=center;verticalAlign=middle;resizable=0;points=[];autosize=1;strokeColor=none;fillColor=none;" parent="i2YIwyT0wJ4ALkn0WlBp-11" vertex="1">
          <mxGeometry x="-5" y="25" width="260" height="30" as="geometry" />
        </mxCell>
        <mxCell id="lMpaoCtHyFMVsELwLEnl-2" value="Soporte_Salpicadero" style="swimlane;whiteSpace=wrap;html=1;" parent="WIyWlLk6GJQsqaUBKTNV-1" vertex="1">
          <mxGeometry x="40" y="120" width="130" height="120" as="geometry" />
        </mxCell>
        <mxCell id="lMpaoCtHyFMVsELwLEnl-3" value="" style="endArrow=classic;html=1;rounded=0;exitX=1;exitY=0.5;exitDx=0;exitDy=0;entryX=0.036;entryY=0.5;entryDx=0;entryDy=0;entryPerimeter=0;" parent="WIyWlLk6GJQsqaUBKTNV-1" source="lMpaoCtHyFMVsELwLEnl-2" edge="1" target="i2YIwyT0wJ4ALkn0WlBp-26">
          <mxGeometry width="50" height="50" relative="1" as="geometry">
            <mxPoint x="380" y="320" as="sourcePoint" />
            <mxPoint x="230" y="170" as="targetPoint" />
            <Array as="points" />
          </mxGeometry>
        </mxCell>
        <mxCell id="lMpaoCtHyFMVsELwLEnl-12" value="1" style="text;html=1;align=center;verticalAlign=middle;whiteSpace=wrap;rounded=0;" parent="WIyWlLk6GJQsqaUBKTNV-1" vertex="1">
          <mxGeometry x="300" y="370" width="60" height="30" as="geometry" />
        </mxCell>
        <mxCell id="lMpaoCtHyFMVsELwLEnl-10" value="" style="endArrow=classic;html=1;rounded=0;entryX=0.5;entryY=0;entryDx=0;entryDy=0;" parent="WIyWlLk6GJQsqaUBKTNV-1" edge="1">
          <mxGeometry width="50" height="50" relative="1" as="geometry">
            <mxPoint x="340" y="320" as="sourcePoint" />
            <mxPoint x="340" y="400" as="targetPoint" />
          </mxGeometry>
        </mxCell>
        <mxCell id="lMpaoCtHyFMVsELwLEnl-16" value="" style="endArrow=classic;html=1;rounded=0;" parent="WIyWlLk6GJQsqaUBKTNV-1" edge="1">
          <mxGeometry width="50" height="50" relative="1" as="geometry">
            <mxPoint x="430" y="480" as="sourcePoint" />
            <mxPoint x="510" y="450" as="targetPoint" />
          </mxGeometry>
        </mxCell>
        <mxCell id="lMpaoCtHyFMVsELwLEnl-20" value="" style="endArrow=classic;html=1;rounded=0;" parent="WIyWlLk6GJQsqaUBKTNV-1" edge="1">
          <mxGeometry width="50" height="50" relative="1" as="geometry">
            <mxPoint x="630" y="400" as="sourcePoint" />
            <mxPoint x="630" y="320" as="targetPoint" />
          </mxGeometry>
        </mxCell>
        <mxCell id="lMpaoCtHyFMVsELwLEnl-21" value="1" style="text;html=1;align=center;verticalAlign=middle;whiteSpace=wrap;rounded=0;" parent="WIyWlLk6GJQsqaUBKTNV-1" vertex="1">
          <mxGeometry x="590" y="320" width="60" height="30" as="geometry" />
        </mxCell>
        <mxCell id="lMpaoCtHyFMVsELwLEnl-22" value="&amp;lt;&amp;lt;jFrame&amp;gt;&amp;gt;" style="text;html=1;align=center;verticalAlign=middle;whiteSpace=wrap;rounded=0;" parent="WIyWlLk6GJQsqaUBKTNV-1" vertex="1">
          <mxGeometry x="72" y="90" width="60" height="30" as="geometry" />
        </mxCell>
        <mxCell id="lMpaoCtHyFMVsELwLEnl-23" value="Info" style="swimlane;whiteSpace=wrap;html=1;" parent="WIyWlLk6GJQsqaUBKTNV-1" vertex="1">
          <mxGeometry x="550" y="80" width="160" height="120" as="geometry" />
        </mxCell>
        <mxCell id="lMpaoCtHyFMVsELwLEnl-25" value="" style="endArrow=classic;html=1;rounded=0;entryX=0.5;entryY=1;entryDx=0;entryDy=0;" parent="lMpaoCtHyFMVsELwLEnl-23" target="lMpaoCtHyFMVsELwLEnl-23" edge="1">
          <mxGeometry width="50" height="50" relative="1" as="geometry">
            <mxPoint x="80" y="160" as="sourcePoint" />
            <mxPoint x="130" y="110" as="targetPoint" />
          </mxGeometry>
        </mxCell>
        <mxCell id="lMpaoCtHyFMVsELwLEnl-24" value="&amp;lt;&amp;lt;jFrame&amp;gt;&amp;gt;" style="text;html=1;align=center;verticalAlign=middle;whiteSpace=wrap;rounded=0;" parent="WIyWlLk6GJQsqaUBKTNV-1" vertex="1">
          <mxGeometry x="590" y="50" width="60" height="30" as="geometry" />
        </mxCell>
        <mxCell id="lMpaoCtHyFMVsELwLEnl-26" value="1" style="text;html=1;align=center;verticalAlign=middle;whiteSpace=wrap;rounded=0;" parent="WIyWlLk6GJQsqaUBKTNV-1" vertex="1">
          <mxGeometry x="590" y="200" width="60" height="30" as="geometry" />
        </mxCell>
        <mxCell id="lMpaoCtHyFMVsELwLEnl-29" value="" style="endArrow=diamondThin;endFill=1;endSize=24;html=1;rounded=0;entryX=0.5;entryY=0;entryDx=0;entryDy=0;" parent="WIyWlLk6GJQsqaUBKTNV-1" target="i2YIwyT0wJ4ALkn0WlBp-3" edge="1">
          <mxGeometry width="160" relative="1" as="geometry">
            <mxPoint x="629" y="500" as="sourcePoint" />
            <mxPoint x="629.29" y="520" as="targetPoint" />
          </mxGeometry>
        </mxCell>
        <mxCell id="lMpaoCtHyFMVsELwLEnl-11" value="1" style="text;html=1;align=center;verticalAlign=middle;whiteSpace=wrap;rounded=0;" parent="WIyWlLk6GJQsqaUBKTNV-1" vertex="1">
          <mxGeometry x="223" y="151" width="60" height="30" as="geometry" />
        </mxCell>
      </root>
    </mxGraphModel>
  </diagram>
</mxfile>
